<svg width="242" height="240" viewBox="0 0 242 240" fill="none" xmlns="http://www.w3.org/2000/svg">
<path d="M136.47 56.4873C141.49 54.6312 146.642 53.2639 151.973 52.7751C158.155 52.2071 164.226 53.2903 169.913 55.5362C184.715 61.3819 194.452 71.9043 197.847 87.6845C200.859 101.675 197.675 114.258 188.487 125.262C187.556 126.379 186.657 127.436 186.499 128.935C183.612 129.298 181.981 131.293 180.541 133.532C175.877 135.6 171.478 138.222 166.432 139.484C149.799 143.645 131.146 138.836 120.306 124.384C118.906 122.521 117.704 120.302 114.606 121.596C113.675 121.986 112.439 121.676 111.343 121.616C110.544 121.57 109.738 121.306 109.758 120.328C109.771 119.364 110.597 119.238 111.369 119.034C112.829 118.657 115.068 120.031 115.61 118.076C115.92 116.946 114.447 115.368 113.866 113.947C107.439 98.2729 110.55 78.8399 122.982 66.1972C126.482 62.6369 130.783 60.3052 134.501 57.1479C135.221 57.1215 135.994 57.2536 136.463 56.4807L136.47 56.4873ZM154.714 131.551C174.319 132.304 189.887 115.988 189.689 96.9122C189.478 76.3166 174.028 62.2142 154.648 61.9302C135.842 61.6527 119.976 77.968 119.745 96.7999C119.52 114.872 135.869 132.76 154.707 131.551H154.714ZM154.106 55.087C153.109 54.9285 151.325 55.5956 149.489 55.7872C139.726 56.8044 131.661 61.263 124.739 67.9609C123.503 69.1564 121.277 70.9333 122.552 72.3732C123.47 73.4103 124.792 70.6625 126.08 69.8038C126.436 69.566 126.7 69.1895 127.018 68.8856C138.841 57.5376 152.627 54.9747 168.03 59.7702C168.856 60.0278 169.781 60.7346 170.296 59.6117C170.93 58.2312 169.682 58.0132 168.75 57.7291C164.252 56.3817 159.707 55.3116 154.1 55.0804L154.106 55.087ZM120.055 75.0418C119.018 75.1871 115.736 81.3235 116.251 82.2152C116.568 82.7635 117.301 82.9881 117.585 82.4927C118.827 80.3459 119.983 78.1397 121.04 75.8939C121.31 75.3126 120.709 74.9692 120.055 75.0484V75.0418Z" fill="#A8A8A8"/>
<path d="M193.084 134.82C195.324 132.594 197.318 133.446 198.857 135.553C204.782 143.698 211.705 151.017 218.006 158.844C219.79 161.057 221.765 163.124 223.423 165.423C225.84 168.772 225.186 172.431 221.956 174.928C221.349 175.397 220.767 175.892 220.186 176.394C216.196 179.829 213.132 179.856 209.71 175.912C203.409 168.646 197.332 161.189 191.156 153.817C189.26 151.558 187.331 149.319 185.422 147.067C183.15 144.385 183.236 143.255 185.871 140.765C188.276 138.783 190.687 136.802 193.091 134.82H193.084ZM195.707 138.737C194.002 139.16 194.293 140.091 194.954 140.957C196.281 142.687 197.655 144.391 199.082 146.036C204.307 152.06 209.552 158.058 214.809 164.049C215.384 164.703 216.157 165.542 217.022 164.868C218.013 164.095 217.485 163.065 216.798 162.279C210.258 154.795 203.712 147.324 197.14 139.867C196.724 139.398 196.143 139.074 195.7 138.737H195.707Z" fill="#B5B5B5"/>
<path d="M120.993 192.756C115.286 192.756 109.579 192.631 103.879 192.789C94.5653 193.04 85.2914 192.109 75.9977 191.917C70.2972 191.799 64.4383 191.759 58.8039 190.233C58.15 190.055 56.9874 190.345 57.1261 189.189C57.2318 188.318 58.216 188.351 58.9558 188.126C62.668 186.983 66.5652 187.254 70.3236 187.029C76.0901 186.679 81.85 186.006 87.6693 186.125C100.589 186.382 113.483 185.253 126.416 185.464C138.015 185.649 149.608 186.164 161.207 186.369C168.446 186.494 175.805 186.765 183.005 188.146C183.784 188.298 184.735 188.324 184.848 189.196C184.993 190.359 183.837 190.114 183.183 190.233C180.726 190.682 178.262 191.224 175.785 191.396C170.778 191.746 165.751 191.818 160.738 192.122C147.501 192.935 134.25 192.763 121 192.763L120.993 192.756Z" fill="#F3F3F4"/>
<path d="M136.47 56.4869C136.008 57.2598 135.228 57.1277 134.508 57.1541C131.291 53.5872 128.022 50.0995 124.224 47.0875C122.427 45.6607 121.456 46.0901 120.108 47.4574C115.267 52.3784 110.359 57.2399 105.471 62.1213C104.929 62.663 104.394 63.2178 103.82 63.7264C103.113 64.3605 102.129 64.7767 101.461 64.0765C100.53 63.1055 101.792 62.5507 102.32 62.0156C107.717 56.5596 113.074 51.0573 118.629 45.773C120.624 43.8707 120.756 42.6355 118.596 40.8917C112.73 36.1556 108.364 29.8475 102.38 25.2171C101.6 24.616 100.728 23.5724 101.303 22.7335C102.043 21.6568 103.119 22.6873 103.879 23.1563C104.705 23.6649 105.372 24.4311 106.072 25.1247C110.729 29.7682 115.432 34.3722 120.003 39.095C121.859 41.0106 123.312 41.103 125.214 39.1412C130.023 34.1806 134.957 29.3521 139.839 24.4707C140.38 23.9291 140.915 23.3742 141.49 22.8656C141.999 22.4099 142.653 22.0466 143.247 22.5552C144.033 23.2355 143.531 23.9489 143.009 24.5434C142.501 25.118 141.946 25.6465 141.404 26.1881C136.523 31.0695 131.754 36.0764 126.701 40.7794C124.475 42.8535 124.706 44.0688 126.813 45.925C129.6 48.3822 132.13 51.1432 134.752 53.7919C135.512 54.5582 136.477 55.2055 136.463 56.4737L136.47 56.4869Z" fill="#A8A8A8"/>
<path d="M193.084 134.819C190.68 136.801 188.269 138.782 185.865 140.764C185.898 138.703 183.216 138.201 183.222 136.153C184.821 134.403 187.344 133.478 187.939 130.843C189.821 131.952 190.046 135.202 193.084 134.819Z" fill="#A8A8A8"/>
<path d="M187.939 130.844C187.344 133.48 184.814 134.405 183.223 136.155C181.802 135.818 181.432 134.405 180.541 133.533C181.987 131.3 183.619 129.305 186.499 128.936C187.239 129.378 187.675 130.045 187.939 130.844Z" fill="#B5B5B5"/>
<path d="M75.2246 32.9854C75.4162 34.8944 75.4294 36.691 72.1862 35.6144C71.301 35.3171 70.0064 36.3542 68.8637 36.6712C68.3616 36.8099 67.754 36.7042 67.5162 36.0701C67.285 35.4492 67.602 35.0265 68.1239 34.7491C69.1741 34.1876 70.2376 33.6327 71.3076 33.1109C72.3117 32.6155 73.2166 32.0937 73.2496 30.766C73.2694 30.0526 73.1175 29.0156 74.214 29.0486C75.5219 29.0883 75.1321 30.264 75.2114 31.0567C75.2643 31.5917 75.2246 32.1399 75.2246 32.9854Z" fill="#A8A8A8" fill-opacity="0.5"/>
<path d="M169.417 39.2934C169.417 38.646 169.378 37.9855 169.424 37.3316C169.483 36.5257 169.721 35.7265 170.685 35.7132C171.663 35.6934 171.967 36.4993 171.974 37.2985C171.993 39.6765 171.59 42.1733 174.318 43.5736C174.517 43.6727 174.569 44.4521 174.404 44.7626C174.114 45.3108 173.519 45.2448 172.951 45.0863C169.979 44.254 169.113 42.1337 169.411 39.2934H169.417Z" fill="#A8A8A8" fill-opacity="0.5"/>
<path d="M116.508 147.727C116.376 148.817 115.722 149.471 114.956 148.989C112.267 147.278 109.929 148.48 107.538 149.596C106.917 149.887 106.243 150.112 105.768 149.451C105.424 148.969 105.622 148.427 105.999 147.952C107.617 145.878 113.628 145.197 115.696 146.875C116.019 147.139 116.27 147.476 116.508 147.727Z" fill="#A8A8A8" fill-opacity="0.5"/>
<path d="M159.113 0.53166C159.959 0.53166 160.401 0.51845 160.837 0.53166C161.815 0.571293 163.063 0.465607 163.149 1.76686C163.235 3.12096 161.993 3.10115 161.002 3.14739C160.566 3.1672 160.117 3.20683 159.688 3.14739C158.287 2.94262 155.929 3.86737 155.876 1.79329C155.81 -0.782808 158.406 1.39696 159.113 0.53166Z" fill="#A8A8A8" fill-opacity="0.5"/>
<path d="M173.585 172.373C174.622 172.373 175.283 172.346 175.937 172.379C176.736 172.425 177.588 172.617 177.648 173.548C177.72 174.717 176.763 174.902 175.851 174.962C175.303 175.001 174.741 175.054 174.213 174.962C172.753 174.731 170.25 175.774 170.349 173.33C170.421 171.415 172.773 172.927 173.592 172.366L173.585 172.373Z" fill="#A8A8A8" fill-opacity="0.5"/>
<path d="M148.65 3.08913C147.468 3.08913 146.689 3.16179 145.936 3.06931C145.262 2.99005 144.648 2.63336 144.654 1.83411C144.654 1.04146 145.268 0.69138 145.949 0.60551C146.708 0.50643 147.488 0.460192 148.247 0.546062C149.562 0.69138 151.788 -0.127685 151.861 1.68879C151.946 4.00067 149.535 2.76547 148.657 3.08913H148.65Z" fill="#A8A8A8" fill-opacity="0.5"/>
<path d="M169.391 17.2516C169.391 16.7695 169.365 16.4458 169.391 16.1287C169.49 15.019 169.081 13.3347 170.759 13.3941C172.39 13.4536 171.908 15.1379 172.014 16.2476C172.047 16.5713 172.06 16.9016 172.014 17.2186C171.829 18.4802 172.628 20.6138 170.646 20.5543C168.718 20.4949 169.649 18.3481 169.391 17.2516Z" fill="#A8A8A8" fill-opacity="0.5"/>
<path d="M172.02 27.9774C172.02 28.704 172.04 29.2391 172.02 29.7807C171.974 30.7715 171.907 31.9275 170.567 31.8152C169.51 31.7293 169.43 30.6923 169.411 29.8005C169.397 29.2589 169.325 28.7106 169.411 28.1888C169.648 26.8677 168.611 24.5493 170.857 24.6351C172.674 24.7012 171.775 26.8942 172.02 27.9841V27.9774Z" fill="#A8A8A8" fill-opacity="0.5"/>
<path d="M92.0878 0.572796C93.1843 0.572796 93.8449 0.526558 94.4988 0.586006C95.3113 0.658665 96.0643 0.962512 96.0114 1.94011C95.9718 2.70633 95.3245 3.01678 94.6375 3.09605C93.9836 3.1687 93.3098 3.24136 92.6691 3.14228C91.282 2.92431 88.8974 3.95474 88.8314 1.91369C88.7587 -0.34535 91.2556 1.02857 92.0944 0.572796H92.0878Z" fill="#A8A8A8" fill-opacity="0.5"/>
<path d="M172 50.3707C172 51.3219 172.033 51.9692 171.993 52.61C171.94 53.4026 171.689 54.182 170.765 54.2283C169.807 54.2811 169.523 53.5083 169.443 52.7156C169.377 52.0749 169.318 51.4078 169.417 50.7803C169.628 49.4196 168.631 47.0813 170.659 47.0284C172.845 46.969 171.65 49.3733 172 50.3641V50.3707Z" fill="#A8A8A8" fill-opacity="0.5"/>
<path d="M102.241 121.603C101.474 121.603 100.702 121.649 99.9419 121.59C99.255 121.53 98.6076 121.207 98.5614 120.44C98.502 119.463 99.255 119.126 100.067 119.08C101.27 119.014 102.478 119.014 103.687 119.04C104.671 119.06 105.92 119.04 105.854 120.401C105.788 121.715 104.539 121.609 103.562 121.649C103.126 121.669 102.683 121.649 102.247 121.649V121.596L102.241 121.603Z" fill="#A8A8A8" fill-opacity="0.5"/>
<path d="M91.1046 121.643C90.4441 121.643 89.7901 121.663 89.1296 121.643C88.3237 121.61 87.4717 121.412 87.3792 120.5C87.2669 119.331 88.2181 119.093 89.1428 119.053C90.2393 119.007 91.3358 119.014 92.4323 119.04C93.4099 119.067 94.6649 119.007 94.6583 120.355C94.6517 121.689 93.3967 121.61 92.4191 121.656C91.9831 121.676 91.5406 121.656 91.1046 121.656V121.643Z" fill="#A8A8A8" fill-opacity="0.5"/>
<path d="M126.212 3.09028C125.016 3.09028 124.237 3.17615 123.484 3.06386C122.823 2.96478 122.196 2.59488 122.255 1.78242C122.315 1.00298 122.923 0.679319 123.609 0.60666C124.369 0.527395 125.155 0.461342 125.908 0.553817C127.209 0.712346 129.449 -0.126536 129.462 1.74939C129.482 4.02824 127.084 2.76001 126.205 3.09028H126.212Z" fill="#A8A8A8" fill-opacity="0.5"/>
<path d="M114.448 0.539364C115.221 0.539364 115.762 0.519548 116.304 0.539364C117.295 0.585602 118.464 0.625234 118.371 1.97273C118.299 3.0428 117.248 3.12206 116.357 3.14188C115.815 3.15509 115.273 3.16169 114.732 3.14188C113.364 3.10225 111.257 3.35325 111.251 1.76796C111.244 -0.207042 113.444 0.836606 114.441 0.526153L114.448 0.539364Z" fill="#A8A8A8" fill-opacity="0.5"/>
<path d="M103.351 0.552047C104.242 0.552047 104.89 0.519021 105.537 0.558653C106.33 0.611496 107.155 0.829473 107.188 1.76083C107.228 2.91016 106.277 3.0753 105.379 3.14135C104.837 3.18098 104.295 3.17438 103.754 3.15456C102.301 3.10172 100.061 3.45841 100.061 1.67496C100.061 -0.148121 102.32 0.816262 103.344 0.552047H103.351Z" fill="#A8A8A8" fill-opacity="0.5"/>
<path d="M137.163 0.585296C138.18 0.585296 138.861 0.473005 139.482 0.624928C139.951 0.743825 140.572 1.11373 140.717 1.51665C141.001 2.32911 140.215 2.63956 139.62 2.83773C139.019 3.04249 138.346 3.16139 137.705 3.13497C136.166 3.07552 133.676 3.61716 133.676 1.67518C133.676 -0.273402 136.166 0.882537 137.157 0.585296H137.163Z" fill="#A8A8A8" fill-opacity="0.5"/>
<path d="M185.085 166.44C184.412 168.137 183.665 169.927 182.034 171.169C181.545 171.539 181.056 171.625 180.574 171.209C179.973 170.68 179.979 170.066 180.514 169.524C181.611 168.415 182.305 167.12 182.727 165.627C182.906 164.993 183.434 164.471 184.207 164.755C184.887 165 185.171 165.581 185.079 166.446L185.085 166.44Z" fill="#A8A8A8" fill-opacity="0.5"/>
<path d="M203.607 125.824C203.548 126.069 203.541 126.425 203.376 126.689C202.418 128.228 202.266 130.303 200.463 131.267C200.258 131.379 199.439 130.937 199.432 130.732C199.38 128.592 200.503 126.828 201.421 125.012C201.665 124.529 202.24 124.292 202.847 124.45C203.521 124.629 203.561 125.183 203.6 125.824H203.607Z" fill="#A8A8A8" fill-opacity="0.5"/>
<path d="M57.9848 156.664C58.8039 156.724 62.0735 161.684 61.7565 162.457C61.347 163.455 60.3694 163.29 59.8409 162.867C58.1632 161.526 57.4894 159.524 56.9148 157.549C56.7562 157.001 57.3177 156.598 57.9848 156.664Z" fill="#A8A8A8" fill-opacity="0.5"/>
<path d="M102.148 151.016C101.825 152.806 100.041 152.912 98.806 153.612C97.8416 154.154 96.7979 155.118 95.5759 154.041C95.1004 153.625 94.9815 152.879 95.4571 152.648C97.366 151.703 99.3344 150.884 101.316 150.118C101.732 149.959 102.029 150.481 102.142 151.023L102.148 151.016Z" fill="#A8A8A8" fill-opacity="0.5"/>
<path d="M43.8823 126.351C45.3553 126.483 45.6592 127.666 46.0753 128.617C46.6632 129.951 47.7663 131.239 47.0199 132.844C46.9076 133.089 46.2537 133.254 45.9036 133.181C45.0251 133.003 42.6934 127.514 43.1756 126.827C43.3407 126.589 43.6842 126.477 43.8823 126.345V126.351Z" fill="#A8A8A8" fill-opacity="0.5"/>
<path d="M39.4897 115.849C40.2295 115.941 40.6259 116.41 40.8835 117.071C41.2468 117.982 41.6695 118.874 42.0064 119.792C42.3499 120.723 43.5851 121.873 42.046 122.586C40.5598 123.266 40.3683 121.602 39.8861 120.75C39.2982 119.713 38.7896 118.596 38.4395 117.46C38.2083 116.707 38.3668 115.888 39.4897 115.855V115.849Z" fill="#A8A8A8" fill-opacity="0.5"/>
<path d="M216.454 94.1375C217.127 94.1771 217.497 94.6263 217.398 95.2009C217.042 97.3807 216.09 99.3161 214.571 100.908C214.135 101.364 213.323 100.934 213.257 100.439C212.979 98.3451 214.598 96.8985 215.291 95.1283C215.489 94.6263 215.8 94.1573 216.447 94.1309L216.454 94.1375Z" fill="#A8A8A8" fill-opacity="0.5"/>
<path d="M121.291 149.332C122.598 150.006 124.25 150.805 125.855 151.697C126.344 151.967 126.581 152.522 126.218 153.097C125.901 153.599 125.412 153.909 124.844 153.638C123.18 152.839 121.535 152 119.903 151.128C119.507 150.917 119.355 150.468 119.527 149.999C119.758 149.358 120.326 149.365 121.284 149.325L121.291 149.332Z" fill="#A8A8A8" fill-opacity="0.5"/>
<path d="M117.301 145.131C116.35 145.197 115.894 144.926 115.683 144.365C115.452 143.751 115.789 143.269 116.284 143.004C118.094 142.02 119.877 140.91 122.037 140.976C122.427 140.99 122.724 141.63 122.493 142.04C121.291 144.18 118.556 143.652 117.308 145.125L117.301 145.131Z" fill="#A8A8A8" fill-opacity="0.5"/>
<path d="M48.6643 136.142C49.0474 136.406 49.6749 136.604 49.8598 137C50.6459 138.724 52.5746 140.666 51.8216 142.179C50.6723 144.478 49.8664 142.621 49.3776 141.208C49.1002 140.395 48.585 139.669 48.2745 138.863C47.9311 137.971 46.8676 136.947 48.6643 136.142Z" fill="#A8A8A8" fill-opacity="0.5"/>
<path d="M82.8209 0.57912C83.8448 0.546093 84.6771 0.783887 84.8092 1.62937C84.9875 2.75229 84.076 3.10237 83.1446 3.1354C81.9424 3.17503 80.7865 3.20145 79.7957 4.06675C79.2739 4.51592 78.5209 4.6216 78.0915 3.94125C77.6952 3.30714 78.0783 2.69944 78.5407 2.19083C79.7495 0.856546 81.5659 1.22645 82.8209 0.585726V0.57912Z" fill="#A8A8A8" fill-opacity="0.5"/>
<path d="M171.267 7.86453C171.339 8.58452 171.088 9.1724 170.414 9.44322C169.642 9.74706 169.067 9.24506 168.928 8.61755C168.631 7.24363 167.653 6.41135 166.795 5.45357C166.279 4.87891 165.784 4.17213 166.55 3.49178C167.132 2.97656 167.779 3.30022 168.281 3.75599C169.569 4.91193 170.85 6.08108 171.273 7.87114L171.267 7.86453Z" fill="#A8A8A8" fill-opacity="0.5"/>
<path d="M43.4925 47.8008C43.4132 48.9964 38.1554 51.5262 37.1315 50.8261C36.6559 50.5024 36.2926 49.9145 36.7484 49.4389C38.3271 47.8008 40.5861 47.5102 42.5942 46.7506C43.1094 46.559 43.5585 47.1271 43.4925 47.8008Z" fill="#A8A8A8" fill-opacity="0.5"/>
<path d="M33.5052 52.4713C32.9041 53.7462 31.5104 54.0104 30.3809 54.4794C29.2382 54.955 27.7123 56.8639 26.8074 55.1003C25.9289 53.3961 28.2738 53.1385 29.3703 52.4515C30.0969 51.9958 30.9093 51.6126 31.735 51.3683C32.5607 51.1239 33.208 51.5004 33.5118 52.4713H33.5052Z" fill="#A8A8A8" fill-opacity="0.5"/>
<path d="M90.4109 154.841C91.3092 154.709 91.765 154.94 92.0292 155.488C92.3264 156.096 92.0292 156.644 91.547 156.869C89.7041 157.708 88.1386 159.306 85.8928 159.049C85.4238 158.996 85.0473 158.481 85.2785 158.091C86.4873 156.043 89.0039 156.083 90.4175 154.848L90.4109 154.841Z" fill="#A8A8A8" fill-opacity="0.5"/>
<path d="M205.555 58.6468C205.172 58.9837 204.822 59.532 204.558 59.4923C202.365 59.1753 200.555 57.9599 198.758 56.7841C198.553 56.652 198.494 55.833 198.685 55.648C199.551 54.8025 200.528 55.2055 201.367 55.7207C202.774 56.586 204.729 56.7115 205.555 58.6468Z" fill="#A8A8A8" fill-opacity="0.5"/>
<path d="M34.846 106.001C35.8566 106.1 38.512 111.562 37.9175 112.368C37.574 112.837 36.9465 113.187 36.5304 112.705C35.1102 111.047 34.06 109.158 33.8024 106.945C33.7363 106.377 34.1458 105.935 34.846 106.001Z" fill="#A8A8A8" fill-opacity="0.5"/>
<path d="M81.447 121.041C80.9978 120.929 80.3175 120.876 79.7693 120.586C78.468 119.899 76.3675 119.066 77.061 117.56C77.7348 116.101 79.2474 117.752 80.3637 118.228C80.9582 118.485 81.5923 118.644 82.2 118.868C82.8672 119.119 83.8712 119.146 83.5739 120.255C83.3031 121.253 82.3519 120.896 81.4536 121.041H81.447Z" fill="#A8A8A8" fill-opacity="0.5"/>
<path d="M152.31 163.645C153.023 163.989 154.602 164.682 156.121 165.495C156.729 165.818 157.019 166.532 156.649 167.179C156.246 167.886 155.546 167.707 154.932 167.41C153.571 166.75 152.211 166.083 150.87 165.376C150.321 165.085 149.595 164.801 150.031 163.949C150.302 163.414 150.804 163.229 152.31 163.652V163.645Z" fill="#A8A8A8" fill-opacity="0.5"/>
<path d="M220.16 64.5062C222.082 65.1404 223.509 66.4482 224.519 68.1722C224.949 68.912 224.539 69.6849 223.713 70.0217C223.231 70.2199 218.792 65.7745 218.905 65.2593C219.05 64.5921 219.526 64.4468 220.16 64.5062Z" fill="#A8A8A8" fill-opacity="0.5"/>
<path d="M20.3208 75.1406C21.5098 75.1406 21.8334 76.039 22.1373 76.8118C22.7714 78.4433 24.7068 80.9798 23.28 81.6403C21.0936 82.6509 21.2389 79.3681 20.2283 78.0668C19.581 77.2345 18.6959 76.0125 20.3274 75.1406H20.3208Z" fill="#A8A8A8" fill-opacity="0.5"/>
<path d="M126.72 140.541C126.08 140.56 125.663 140.184 125.531 139.636C125.386 139.041 125.769 138.585 126.304 138.348C127.394 137.852 128.484 137.344 129.607 136.947C130.505 136.637 131.694 135.336 132.308 136.96C132.817 138.301 131.331 138.711 130.373 139.14C129.184 139.675 127.942 140.078 126.72 140.541Z" fill="#A8A8A8" fill-opacity="0.5"/>
<path d="M47.4955 46.4335C47.4955 46.4335 47.1586 46.2684 47.0331 45.7598C46.8614 45.0794 46.9274 44.3792 47.6078 44.0622C49.0742 43.3686 50.5736 42.7345 52.0994 42.173C52.4033 42.0607 53.0242 42.2655 53.2224 42.5297C53.5724 42.9855 53.4535 43.6196 52.9978 43.9961C51.5446 45.1983 49.8074 45.8258 47.4955 46.4335Z" fill="#A8A8A8" fill-opacity="0.5"/>
<path d="M141.378 158.751C142.792 159.385 144.588 160.151 146.332 161.023C146.583 161.148 146.755 161.789 146.682 162.133C146.557 162.707 145.989 163.11 145.44 162.892C143.73 162.212 142.045 161.446 140.394 160.633C139.885 160.382 139.727 159.768 139.945 159.193C140.116 158.744 140.5 158.553 141.378 158.751Z" fill="#A8A8A8" fill-opacity="0.5"/>
<path d="M189.749 155.891C188.864 157.78 188.078 159.563 187.193 161.294C187.008 161.65 186.406 161.783 186.037 161.439C185.746 161.175 185.356 160.653 185.449 160.402C186.089 158.678 186.803 156.974 187.589 155.309C187.82 154.814 188.414 154.53 188.976 154.933C189.293 155.164 189.491 155.554 189.755 155.884L189.749 155.891Z" fill="#A8A8A8" fill-opacity="0.5"/>
<path d="M68.0585 166.421C67.4111 166.421 66.7572 166.447 66.1099 166.414C65.1917 166.368 64.1943 166.117 64.3198 165.02C64.4453 163.884 65.3701 163.904 66.3213 164.234C67.3649 164.597 68.468 164.591 69.5182 164.267C70.4166 163.996 71.4074 163.726 71.6188 164.882C71.8632 166.229 70.6874 166.348 69.6834 166.414C69.1417 166.447 68.6001 166.414 68.0585 166.414V166.421Z" fill="#A8A8A8" fill-opacity="0.5"/>
<path d="M15.9219 67.6434C16.0936 66.7649 15.5652 65.5627 16.6749 65.3117C18.2866 64.9484 17.7119 66.5469 18.1016 67.2867C18.2007 67.4783 18.3064 67.6831 18.3394 67.8944C18.5178 69.2287 19.8124 70.4375 18.8679 71.8907C18.6103 72.287 18.029 72.3134 17.7185 71.9766C16.589 70.7414 15.9417 69.2816 15.9285 67.65L15.9219 67.6434Z" fill="#A8A8A8" fill-opacity="0.5"/>
<path d="M25.625 85.5645C26.8867 86.0533 27.1773 87.3413 27.5406 88.4114C27.9435 89.5937 28.8881 90.7629 28.1945 92.1434C28.1219 92.2953 27.8048 92.4605 27.6595 92.4142C25.6977 91.8462 25.8827 89.8381 25.0768 88.4906C24.5682 87.6385 24.1653 86.694 24.9579 85.7626C25.0702 85.6305 25.3542 85.6371 25.625 85.5645Z" fill="#A8A8A8" fill-opacity="0.5"/>
<path d="M189.333 50.5225C191.407 50.714 192.953 51.8039 194.544 52.7287C194.795 52.874 194.934 53.5147 194.848 53.8582C194.683 54.5055 194.016 54.5782 193.501 54.4527C191.678 54.0101 190.073 53.0589 188.507 52.0681C188.104 51.8105 187.952 51.2821 188.276 50.9452C188.534 50.6678 189.042 50.6281 189.333 50.5225Z" fill="#A8A8A8" fill-opacity="0.5"/>
<path d="M131.093 153.955C131.575 154.16 131.899 154.246 132.163 154.424C133.563 155.349 135.571 155.408 136.305 157.245C136.41 157.509 136.047 158.275 135.869 158.282C133.795 158.387 132.282 157.013 130.591 156.128C129.996 155.818 129.726 155.085 130.135 154.444C130.32 154.153 130.829 154.081 131.086 153.955H131.093Z" fill="#A8A8A8" fill-opacity="0.5"/>
<path d="M56.7362 152.159C56.6041 152.383 56.472 152.859 56.1682 153.037C55.6595 153.328 54.9858 153.196 54.7216 152.681C53.8827 151.036 53.1165 149.358 52.4097 147.654C52.1851 147.106 52.5352 146.597 53.0901 146.34C53.711 146.049 54.2328 146.366 54.4574 146.861C55.2368 148.539 55.9238 150.257 56.7296 152.165L56.7362 152.159Z" fill="#A8A8A8" fill-opacity="0.5"/>
<path d="M218.991 90.5914C218.495 90.4924 218.165 90.1423 218.211 89.6931C218.429 87.4539 219.493 85.5581 220.939 83.9134C221.368 83.4312 221.976 83.9134 222.022 84.5673C222.168 86.9056 220.886 88.6957 219.605 90.4593C219.512 90.5848 219.202 90.5518 218.997 90.5848L218.991 90.5914Z" fill="#A8A8A8" fill-opacity="0.5"/>
<path d="M75.9047 111.582C75.7991 112.989 75.8321 114.158 74.478 114.112C73.3947 114.072 73.1701 113.028 73.2824 112.163C73.4938 110.558 72.4237 107.698 74.0685 107.612C76.4398 107.486 74.4582 110.776 75.9047 111.582Z" fill="#A8A8A8" fill-opacity="0.5"/>
<path d="M215.311 62.9137C215.219 63.7724 214.697 64.4197 214.043 64.1291C212.28 63.3364 210.595 62.3588 208.931 61.3614C208.495 61.0972 208.197 60.4036 208.871 60.0205C209.869 59.4525 210.807 60.0205 211.632 60.5093C212.894 61.269 214.585 61.4275 215.318 62.9137H215.311Z" fill="#A8A8A8" fill-opacity="0.5"/>
<path d="M226.071 76.2826C225.979 76.778 225.966 77.465 225.715 78.0462C225.252 79.1229 224.678 80.8271 223.469 80.444C221.811 79.9222 223.138 78.4558 223.363 77.3989C223.475 76.8705 223.647 76.3354 223.885 75.8532C224.248 75.1002 223.687 73.4951 225.312 73.8584C226.428 74.1094 225.893 75.3248 226.078 76.276L226.071 76.2826Z" fill="#A8A8A8" fill-opacity="0.5"/>
<path d="M63.8901 38.6125C63.2626 39.8279 61.9217 40.1648 60.7394 40.5545C59.6627 40.9046 58.586 41.7765 57.3244 41.0829C57.2385 41.0367 57.1659 40.9376 57.1328 40.8451C56.9281 40.3431 57.2055 39.9204 57.5688 39.7354C59.2994 38.8503 60.8649 37.5623 62.9125 37.4632C63.3353 37.4434 63.7646 37.6547 63.8637 38.1832C63.8835 38.2889 63.8769 38.3945 63.8967 38.6191L63.8901 38.6125Z" fill="#A8A8A8" fill-opacity="0.5"/>
<path d="M212.834 105.677C212.63 106.159 212.478 106.839 212.101 107.348C211.236 108.504 211.408 110.492 209.505 110.789C209.023 110.869 208.871 110.188 208.964 109.785C209.419 107.764 209.723 105.571 211.619 104.349C212.716 103.642 212.775 104.759 212.834 105.683V105.677Z" fill="#A8A8A8" fill-opacity="0.5"/>
<path d="M161.346 168.045C161.683 168.197 162.112 168.335 162.482 168.56C163.902 169.412 166.108 169.101 166.637 171.275C166.742 171.704 166.445 172.252 165.95 172.193C163.948 171.948 162.297 170.852 160.685 169.742C160.414 169.557 160.309 168.969 160.328 168.573C160.355 168.038 160.791 167.912 161.346 168.045Z" fill="#A8A8A8" fill-opacity="0.5"/>
<path d="M184.913 48.9765C184.913 49.4852 184.669 49.8947 184.167 49.8154C182 49.4918 179.946 48.8378 178.374 47.2063C178.05 46.8694 178.176 46.4004 178.618 46.1098C179.47 45.555 184.794 47.9791 184.906 48.9765H184.913Z" fill="#A8A8A8" fill-opacity="0.5"/>
<path d="M208.111 115.85C208.039 116.055 207.973 116.259 207.893 116.457C207.266 118.016 207.101 119.839 205.489 120.83C205.086 121.075 204.551 120.758 204.465 120.335C204.049 118.208 205.581 116.741 206.4 115.037C206.526 114.773 207.127 114.562 207.471 114.608C208.151 114.694 208.171 115.288 208.111 115.843V115.85Z" fill="#A8A8A8" fill-opacity="0.5"/>
<path d="M73.2563 11.0223C73.2563 10.5533 73.2167 10.223 73.2629 9.90599C73.4478 8.61133 73.7979 6.68257 75.0596 6.89394C76.6052 7.15155 75.7531 8.98784 75.6276 10.1834C75.5946 10.5005 75.4427 10.8043 75.3304 11.1082C75.0133 11.9338 75.6739 13.4861 74.2933 13.4597C72.6354 13.4266 73.5205 11.8017 73.2629 11.0289L73.2563 11.0223Z" fill="#A8A8A8" fill-opacity="0.5"/>
<path d="M81.6519 160.931C81.5792 161.664 76.3742 164.015 75.7533 163.566C75.2513 163.203 75.0862 162.542 75.4957 162.159C76.9423 160.812 78.7786 160.217 80.6875 159.92C81.2292 159.834 81.7113 160.224 81.6453 160.937L81.6519 160.931Z" fill="#A8A8A8" fill-opacity="0.5"/>
<path d="M33.0626 100.809C32.9833 101.476 33.1419 102.176 32.3955 102.236C32.0652 102.262 31.6491 101.912 31.3584 101.641C31.1338 101.43 30.9951 101.1 30.8828 100.796C30.295 99.2105 28.7823 97.9158 29.3306 95.987C29.3834 95.8087 29.9779 95.5709 30.0902 95.6568C31.801 97.0109 32.1841 99.118 33.0626 100.809Z" fill="#A8A8A8" fill-opacity="0.5"/>
<path d="M75.225 43.5537C75.225 43.9831 75.2646 44.2077 75.225 44.4191C75.0268 45.3702 75.7732 47.0414 74.2143 47.0084C72.7017 46.9753 73.4481 45.3174 73.2566 44.353C73.2169 44.1416 73.2103 43.9104 73.2566 43.7057C73.5076 42.5365 72.6026 40.403 74.1153 40.3898C76.2422 40.37 74.723 42.629 75.2316 43.5537H75.225Z" fill="#A8A8A8" fill-opacity="0.5"/>
<path d="M73.2501 54.8756C73.2501 54.1028 73.2237 53.5611 73.2567 53.0195C73.3029 52.2863 73.2171 51.3483 74.34 51.4342C75.1855 51.5003 75.1789 52.2797 75.2053 52.927C75.2251 53.4687 75.311 54.0301 75.2053 54.5453C74.9477 55.807 76.0244 58.0792 74.2739 58.1122C72.3452 58.1453 73.6927 55.8268 73.2501 54.8756Z" fill="#A8A8A8" fill-opacity="0.5"/>
<path d="M75.2185 21.518C75.2185 22.0597 75.2383 22.6013 75.2119 23.1363C75.1789 23.7705 75.2317 24.5631 74.3862 24.6622C73.2567 24.7943 73.2897 23.8761 73.2633 23.1297C73.2303 22.0465 73.2171 20.9632 73.2633 19.8865C73.2964 19.074 73.0189 17.8587 74.2409 17.8653C75.4563 17.8653 75.1657 19.0806 75.2185 19.8931C75.2581 20.4281 75.2251 20.9764 75.2185 21.5114V21.518Z" fill="#A8A8A8" fill-opacity="0.5"/>
<path d="M75.3368 99.409C74.9075 100.73 75.8917 102.877 74.3328 102.877C72.2851 102.877 73.3618 100.671 73.3156 99.4751C73.2693 98.3786 72.4899 96.2715 74.2733 96.3111C76.0502 96.3573 74.6961 98.4975 75.3368 99.409Z" fill="#A8A8A8" fill-opacity="0.5"/>
<path d="M75.2183 88.2789C75.2183 89.1773 75.2447 89.7189 75.2183 90.2606C75.1721 91.0004 75.2249 91.9251 74.102 91.8128C73.2565 91.7269 73.2962 90.9343 73.2631 90.2936C73.2367 89.7519 73.1575 89.1905 73.2631 88.6753C73.5274 87.4202 72.4309 85.1414 74.2209 85.1348C76.1431 85.1282 74.6503 87.4731 75.2183 88.2789Z" fill="#A8A8A8" fill-opacity="0.5"/>
<path d="M73.2434 66.1318C73.2434 65.7025 73.2037 65.4779 73.2434 65.2665C73.4415 64.3154 72.6951 62.6442 74.254 62.6772C75.76 62.7103 75.0202 64.3682 75.2118 65.3326C75.2514 65.544 75.258 65.7752 75.2118 65.9799C74.9608 67.1491 75.8657 69.2826 74.3531 69.2958C72.2261 69.3156 73.752 67.0566 73.2368 66.1318H73.2434Z" fill="#A8A8A8" fill-opacity="0.5"/>
<path d="M75.225 77.1883C75.225 77.8422 75.2647 78.2782 75.2184 78.7075C75.1325 79.5002 75.476 80.6825 74.1351 80.6099C73.0915 80.557 73.3095 79.5332 73.2566 78.8132C73.2236 78.3839 73.1708 77.9347 73.2566 77.5186C73.5274 76.2636 72.4508 73.9847 74.1814 73.9517C76.13 73.912 74.7626 76.2239 75.2184 77.1817L75.225 77.1883Z" fill="#A8A8A8" fill-opacity="0.5"/>
<path d="M23.1021 56.7843C23.221 57.6166 18.954 61.2033 18.1085 60.9919C17.5801 60.8598 17.2894 60.4503 17.5867 60.054C18.8351 58.3894 20.1495 56.7579 22.2368 56.0841C22.6926 55.9388 23.0559 56.2559 23.1021 56.7843Z" fill="#A8A8A8" fill-opacity="0.5"/>
<path d="M154.714 131.544C135.875 132.753 119.527 114.865 119.752 96.793C119.983 77.9611 135.849 61.6524 154.654 61.9232C174.028 62.2073 189.478 76.3031 189.696 96.9053C189.894 115.982 174.318 132.297 154.72 131.544H154.714Z" fill="white"/>
<path d="M154.106 55.0866C159.714 55.3178 164.265 56.3945 168.757 57.7353C169.688 58.0128 170.937 58.2307 170.302 59.6179C169.787 60.7408 168.862 60.0274 168.037 59.7764C152.626 54.9809 138.841 57.5438 127.024 68.8918C126.707 69.1957 126.443 69.5722 126.086 69.81C124.798 70.6686 123.47 73.4165 122.559 72.3794C121.284 70.9395 123.51 69.1626 124.745 67.9671C131.674 61.2626 139.733 56.804 149.496 55.7934C151.332 55.6018 153.115 54.9281 154.113 55.0932L154.106 55.0866Z" fill="white"/>
<path d="M120.049 75.0426C120.702 74.9633 121.304 75.3068 121.033 75.888C119.976 78.1339 118.827 80.3401 117.578 82.4868C117.294 82.9756 116.561 82.7576 116.244 82.2094C115.735 81.3243 119.018 75.1879 120.049 75.0426Z" fill="white"/>
<path d="M195.706 138.73C196.149 139.074 196.73 139.391 197.146 139.86C203.712 147.317 210.264 154.788 216.804 162.272C217.484 163.051 218.013 164.088 217.028 164.861C216.163 165.542 215.39 164.696 214.816 164.042C209.558 158.051 204.313 152.053 199.088 146.029C197.661 144.378 196.288 142.68 194.96 140.95C194.299 140.085 194.009 139.153 195.713 138.73H195.706Z" fill="#F3F3F4"/>
<path d="M17.3775 215.072V233.516H15.9904C15.7763 233.516 15.5965 233.477 15.451 233.4C15.314 233.323 15.1727 233.199 15.0271 233.028L4.61088 219.555C4.62801 219.786 4.64085 220.013 4.64941 220.235C4.66654 220.458 4.6751 220.668 4.6751 220.865V233.516H2.27333V215.072H3.68614C3.92589 215.072 4.1057 215.102 4.22557 215.162C4.34545 215.213 4.47816 215.338 4.62373 215.534L15.0656 229.02C15.04 228.772 15.0185 228.532 15.0014 228.301C14.9929 228.061 14.9886 227.839 14.9886 227.633V215.072H17.3775ZM27.357 220.261C28.316 220.261 29.1808 220.419 29.9515 220.736C30.7307 221.044 31.39 221.494 31.9294 222.085C32.4774 222.667 32.897 223.373 33.1881 224.204C33.4792 225.026 33.6248 225.951 33.6248 226.978C33.6248 228.006 33.4792 228.935 33.1881 229.765C32.897 230.596 32.4774 231.302 31.9294 231.884C31.39 232.467 30.7307 232.916 29.9515 233.233C29.1808 233.541 28.316 233.695 27.357 233.695C26.3895 233.695 25.5161 233.541 24.7369 233.233C23.9663 232.916 23.307 232.467 22.759 231.884C22.211 231.302 21.7872 230.596 21.4875 229.765C21.1964 228.935 21.0508 228.006 21.0508 226.978C21.0508 225.951 21.1964 225.026 21.4875 224.204C21.7872 223.373 22.211 222.667 22.759 222.085C23.307 221.494 23.9663 221.044 24.7369 220.736C25.5161 220.419 26.3895 220.261 27.357 220.261ZM27.357 231.743C28.59 231.743 29.5105 231.328 30.1184 230.497C30.7264 229.667 31.0303 228.498 31.0303 226.991C31.0303 225.484 30.7264 224.315 30.1184 223.485C29.5105 222.646 28.59 222.226 27.357 222.226C26.1069 222.226 25.1736 222.646 24.5571 223.485C23.9492 224.315 23.6452 225.484 23.6452 226.991C23.6452 228.498 23.9492 229.667 24.5571 230.497C25.1736 231.328 26.1069 231.743 27.357 231.743ZM52.8714 223.626C52.4604 223.087 52.0152 222.71 51.5357 222.496C51.0648 222.282 50.5339 222.175 49.9431 222.175C48.7957 222.175 47.9052 222.59 47.2716 223.42C46.6465 224.242 46.334 225.446 46.334 227.03C46.334 227.86 46.4025 228.571 46.5395 229.162C46.6851 229.744 46.8906 230.223 47.156 230.6C47.43 230.968 47.7639 231.242 48.1578 231.422C48.5517 231.593 48.9969 231.679 49.4935 231.679C50.2213 231.679 50.8507 231.516 51.3816 231.191C51.9124 230.866 52.4091 230.407 52.8714 229.817V223.626ZM55.3888 214.558V233.516H53.8732C53.5222 233.516 53.3038 233.349 53.2182 233.015L52.9999 231.512C52.4433 232.171 51.8097 232.702 51.099 233.105C50.3969 233.499 49.5834 233.695 48.6587 233.695C47.9138 233.695 47.2373 233.55 46.6294 233.259C46.03 232.968 45.5163 232.544 45.0882 231.987C44.66 231.422 44.3304 230.724 44.0992 229.894C43.868 229.063 43.7524 228.108 43.7524 227.03C43.7524 226.062 43.8808 225.163 44.1377 224.332C44.3946 223.502 44.7671 222.783 45.2551 222.175C45.7432 221.567 46.334 221.092 47.0276 220.749C47.7211 220.398 48.5046 220.222 49.3779 220.222C50.1657 220.222 50.8336 220.351 51.3816 220.608C51.9381 220.865 52.4347 221.229 52.8714 221.699V214.558H55.3888ZM66.6661 227.723C65.6472 227.757 64.7824 227.839 64.0717 227.967C63.361 228.087 62.7831 228.25 62.3378 228.455C61.8926 228.661 61.5715 228.905 61.3745 229.187C61.1776 229.461 61.0791 229.77 61.0791 230.112C61.0791 230.437 61.1305 230.72 61.2333 230.96C61.3446 231.191 61.4901 231.384 61.67 231.538C61.8583 231.683 62.0767 231.79 62.325 231.859C62.5733 231.927 62.843 231.962 63.1341 231.962C63.5194 231.962 63.8705 231.923 64.1873 231.846C64.5127 231.769 64.8167 231.662 65.0992 231.525C65.3818 231.379 65.6515 231.204 65.9084 230.998C66.1652 230.793 66.4178 230.557 66.6661 230.292V227.723ZM59.3196 222.29C60.0474 221.597 60.8351 221.079 61.6828 220.736C62.539 220.394 63.4766 220.222 64.4956 220.222C65.2405 220.222 65.8998 220.347 66.4735 220.595C67.0472 220.835 67.531 221.173 67.9248 221.61C68.3187 222.046 68.6141 222.569 68.811 223.176C69.0165 223.784 69.1193 224.457 69.1193 225.193V233.516H68.0019C67.7536 233.516 67.5652 233.477 67.4368 233.4C67.3083 233.314 67.2056 233.16 67.1285 232.938L66.8588 231.795C66.5249 232.103 66.1952 232.377 65.8698 232.617C65.5445 232.848 65.202 233.049 64.8423 233.22C64.4913 233.383 64.1145 233.507 63.7121 233.593C63.3097 233.678 62.8644 233.721 62.3764 233.721C61.8626 233.721 61.3788 233.653 60.925 233.516C60.4798 233.37 60.0902 233.152 59.7562 232.861C59.4223 232.569 59.1569 232.206 58.9599 231.769C58.7716 231.332 58.6774 230.823 58.6774 230.24C58.6774 229.727 58.8144 229.234 59.0884 228.763C59.3709 228.284 59.8247 227.856 60.4498 227.479C61.0834 227.102 61.9054 226.794 62.9158 226.554C63.9347 226.315 65.1848 226.178 66.6661 226.143V225.193C66.6661 224.208 66.4564 223.472 66.0368 222.984C65.6172 222.496 65.0007 222.252 64.1873 222.252C63.6393 222.252 63.1769 222.32 62.8002 222.457C62.432 222.594 62.1109 222.748 61.8369 222.92C61.5715 223.082 61.336 223.232 61.1305 223.369C60.9336 223.506 60.7281 223.575 60.514 223.575C60.3428 223.575 60.1929 223.528 60.0645 223.433C59.9446 223.339 59.8461 223.228 59.7691 223.099L59.3196 222.29ZM77.1514 233.721C76.0982 233.721 75.2848 233.426 74.7111 232.835C74.146 232.244 73.8634 231.401 73.8634 230.305V222.496H72.3479C72.2023 222.496 72.0782 222.453 71.9754 222.367C71.8812 222.273 71.8341 222.136 71.8341 221.956V220.942L73.9533 220.646L74.5185 216.755C74.5527 216.609 74.6169 216.498 74.7111 216.421C74.8139 216.335 74.9423 216.292 75.0964 216.292H76.3679V220.672H80.0669V222.496H76.3679V230.138C76.3679 230.651 76.4921 231.037 76.7404 231.294C76.9973 231.542 77.3227 231.666 77.7165 231.666C77.9477 231.666 78.1447 231.636 78.3073 231.576C78.4786 231.516 78.6242 231.452 78.744 231.384C78.8639 231.307 78.9667 231.238 79.0523 231.178C79.1379 231.118 79.215 231.088 79.2835 231.088C79.3691 231.088 79.4333 231.11 79.4761 231.152C79.5275 231.187 79.5789 231.247 79.6302 231.332L80.3752 232.54C79.9642 232.916 79.4761 233.207 78.911 233.413C78.3459 233.618 77.7593 233.721 77.1514 233.721ZM90.157 227.723C89.1381 227.757 88.2733 227.839 87.5626 227.967C86.8519 228.087 86.274 228.25 85.8287 228.455C85.3835 228.661 85.0624 228.905 84.8654 229.187C84.6685 229.461 84.57 229.77 84.57 230.112C84.57 230.437 84.6214 230.72 84.7242 230.96C84.8355 231.191 84.981 231.384 85.1608 231.538C85.3492 231.683 85.5676 231.79 85.8159 231.859C86.0642 231.927 86.3339 231.962 86.625 231.962C87.0103 231.962 87.3614 231.923 87.6782 231.846C88.0036 231.769 88.3075 231.662 88.5901 231.525C88.8727 231.379 89.1424 231.204 89.3993 230.998C89.6561 230.793 89.9087 230.557 90.157 230.292V227.723ZM82.8105 222.29C83.5383 221.597 84.326 221.079 85.1737 220.736C86.0299 220.394 86.9675 220.222 87.9865 220.222C88.7314 220.222 89.3907 220.347 89.9644 220.595C90.5381 220.835 91.0218 221.173 91.4157 221.61C91.8096 222.046 92.105 222.569 92.3019 223.176C92.5074 223.784 92.6102 224.457 92.6102 225.193V233.516H91.4928C91.2445 233.516 91.0561 233.477 90.9277 233.4C90.7992 233.314 90.6965 233.16 90.6194 232.938L90.3497 231.795C90.0158 232.103 89.6861 232.377 89.3607 232.617C89.0354 232.848 88.6929 233.049 88.3332 233.22C87.9822 233.383 87.6054 233.507 87.203 233.593C86.8006 233.678 86.3553 233.721 85.8672 233.721C85.3535 233.721 84.8697 233.653 84.4159 233.516C83.9707 233.37 83.5811 233.152 83.2471 232.861C82.9132 232.569 82.6478 232.206 82.4508 231.769C82.2625 231.332 82.1683 230.823 82.1683 230.24C82.1683 229.727 82.3053 229.234 82.5793 228.763C82.8618 228.284 83.3156 227.856 83.9407 227.479C84.5743 227.102 85.3963 226.794 86.4067 226.554C87.4256 226.315 88.6757 226.178 90.157 226.143V225.193C90.157 224.208 89.9473 223.472 89.5277 222.984C89.1081 222.496 88.4916 222.252 87.6782 222.252C87.1302 222.252 86.6678 222.32 86.2911 222.457C85.9229 222.594 85.6018 222.748 85.3278 222.92C85.0624 223.082 84.8269 223.232 84.6214 223.369C84.4245 223.506 84.219 223.575 84.0049 223.575C83.8337 223.575 83.6838 223.528 83.5554 223.433C83.4355 223.339 83.337 223.228 83.26 223.099L82.8105 222.29ZM108.086 233.721C107.032 233.721 106.219 233.426 105.645 232.835C105.08 232.244 104.798 231.401 104.798 230.305V222.496H103.282C103.137 222.496 103.012 222.453 102.91 222.367C102.815 222.273 102.768 222.136 102.768 221.956V220.942L104.888 220.646L105.453 216.755C105.487 216.609 105.551 216.498 105.645 216.421C105.748 216.335 105.877 216.292 106.031 216.292H107.302V220.672H111.001V222.496H107.302V230.138C107.302 230.651 107.426 231.037 107.675 231.294C107.931 231.542 108.257 231.666 108.651 231.666C108.882 231.666 109.079 231.636 109.242 231.576C109.413 231.516 109.558 231.452 109.678 231.384C109.798 231.307 109.901 231.238 109.986 231.178C110.072 231.118 110.149 231.088 110.218 231.088C110.303 231.088 110.368 231.11 110.41 231.152C110.462 231.187 110.513 231.247 110.564 231.332L111.309 232.54C110.898 232.916 110.41 233.207 109.845 233.413C109.28 233.618 108.694 233.721 108.086 233.721ZM119.565 220.261C120.524 220.261 121.388 220.419 122.159 220.736C122.938 221.044 123.598 221.494 124.137 222.085C124.685 222.667 125.105 223.373 125.396 224.204C125.687 225.026 125.832 225.951 125.832 226.978C125.832 228.006 125.687 228.935 125.396 229.765C125.105 230.596 124.685 231.302 124.137 231.884C123.598 232.467 122.938 232.916 122.159 233.233C121.388 233.541 120.524 233.695 119.565 233.695C118.597 233.695 117.724 233.541 116.945 233.233C116.174 232.916 115.515 232.467 114.967 231.884C114.419 231.302 113.995 230.596 113.695 229.765C113.404 228.935 113.258 228.006 113.258 226.978C113.258 225.951 113.404 225.026 113.695 224.204C113.995 223.373 114.419 222.667 114.967 222.085C115.515 221.494 116.174 221.044 116.945 220.736C117.724 220.419 118.597 220.261 119.565 220.261ZM119.565 231.743C120.798 231.743 121.718 231.328 122.326 230.497C122.934 229.667 123.238 228.498 123.238 226.991C123.238 225.484 122.934 224.315 122.326 223.485C121.718 222.646 120.798 222.226 119.565 222.226C118.315 222.226 117.381 222.646 116.765 223.485C116.157 224.315 115.853 225.484 115.853 226.991C115.853 228.498 116.157 229.667 116.765 230.497C117.381 231.328 118.315 231.743 119.565 231.743ZM144.36 222.714C144.291 222.825 144.219 222.907 144.141 222.958C144.064 223.001 143.966 223.022 143.846 223.022C143.709 223.022 143.555 222.975 143.384 222.881C143.221 222.787 143.02 222.684 142.78 222.573C142.549 222.461 142.275 222.359 141.958 222.265C141.641 222.17 141.264 222.123 140.828 222.123C140.468 222.123 140.139 222.17 139.839 222.265C139.548 222.35 139.299 222.474 139.094 222.637C138.888 222.791 138.73 222.98 138.619 223.202C138.507 223.416 138.452 223.647 138.452 223.896C138.452 224.221 138.546 224.491 138.734 224.705C138.931 224.919 139.184 225.103 139.492 225.257C139.809 225.411 140.164 225.553 140.558 225.681C140.961 225.801 141.367 225.929 141.778 226.066C142.198 226.203 142.604 226.362 142.998 226.542C143.401 226.713 143.756 226.931 144.064 227.197C144.381 227.453 144.634 227.766 144.822 228.134C145.019 228.502 145.118 228.952 145.118 229.483C145.118 230.091 145.006 230.656 144.784 231.178C144.57 231.692 144.248 232.137 143.82 232.514C143.401 232.891 142.878 233.186 142.253 233.4C141.628 233.614 140.913 233.721 140.109 233.721C139.209 233.721 138.379 233.571 137.617 233.272C136.855 232.972 136.217 232.591 135.703 232.129L136.294 231.165C136.362 231.045 136.448 230.955 136.551 230.896C136.654 230.827 136.791 230.793 136.962 230.793C137.125 230.793 137.291 230.853 137.463 230.973C137.634 231.092 137.839 231.225 138.079 231.371C138.319 231.508 138.61 231.636 138.953 231.756C139.295 231.867 139.723 231.923 140.237 231.923C140.665 231.923 141.038 231.872 141.354 231.769C141.671 231.658 141.932 231.512 142.138 231.332C142.352 231.144 142.51 230.93 142.613 230.69C142.716 230.45 142.767 230.198 142.767 229.932C142.767 229.59 142.669 229.307 142.472 229.085C142.283 228.853 142.031 228.656 141.714 228.494C141.406 228.331 141.05 228.19 140.648 228.07C140.246 227.95 139.835 227.822 139.415 227.685C138.995 227.548 138.584 227.389 138.182 227.209C137.78 227.03 137.42 226.803 137.103 226.529C136.795 226.255 136.542 225.921 136.345 225.527C136.157 225.133 136.063 224.653 136.063 224.088C136.063 223.583 136.166 223.099 136.371 222.637C136.585 222.175 136.889 221.768 137.283 221.417C137.685 221.066 138.178 220.788 138.76 220.582C139.351 220.368 140.023 220.261 140.776 220.261C141.641 220.261 142.42 220.398 143.114 220.672C143.816 220.946 144.415 221.323 144.912 221.802L144.36 222.714ZM151.105 222.123C151.653 221.567 152.256 221.117 152.916 220.775C153.583 220.432 154.35 220.261 155.215 220.261C155.934 220.261 156.563 220.381 157.103 220.621C157.651 220.86 158.109 221.199 158.477 221.635C158.845 222.063 159.123 222.581 159.312 223.189C159.5 223.797 159.594 224.469 159.594 225.206V233.516H157.077V225.206C157.077 224.272 156.863 223.549 156.435 223.035C156.007 222.513 155.352 222.252 154.47 222.252C153.827 222.252 153.224 222.406 152.659 222.714C152.102 223.014 151.584 223.425 151.105 223.947V233.516H148.6V214.558H151.105V222.123ZM169.306 220.261C170.265 220.261 171.13 220.419 171.9 220.736C172.679 221.044 173.339 221.494 173.878 222.085C174.426 222.667 174.846 223.373 175.137 224.204C175.428 225.026 175.574 225.951 175.574 226.978C175.574 228.006 175.428 228.935 175.137 229.765C174.846 230.596 174.426 231.302 173.878 231.884C173.339 232.467 172.679 232.916 171.9 233.233C171.13 233.541 170.265 233.695 169.306 233.695C168.338 233.695 167.465 233.541 166.686 233.233C165.915 232.916 165.256 232.467 164.708 231.884C164.16 231.302 163.736 230.596 163.436 229.765C163.145 228.935 163 228.006 163 226.978C163 225.951 163.145 225.026 163.436 224.204C163.736 223.373 164.16 222.667 164.708 222.085C165.256 221.494 165.915 221.044 166.686 220.736C167.465 220.419 168.338 220.261 169.306 220.261ZM169.306 231.743C170.539 231.743 171.459 231.328 172.067 230.497C172.675 229.667 172.979 228.498 172.979 226.991C172.979 225.484 172.675 224.315 172.067 223.485C171.459 222.646 170.539 222.226 169.306 222.226C168.056 222.226 167.122 222.646 166.506 223.485C165.898 224.315 165.594 225.484 165.594 226.991C165.594 228.498 165.898 229.667 166.506 230.497C167.122 231.328 168.056 231.743 169.306 231.743ZM197.087 220.466L192.887 233.516H190.884C190.644 233.516 190.481 233.357 190.396 233.04L187.647 224.538C187.579 224.324 187.519 224.114 187.467 223.909C187.416 223.694 187.369 223.48 187.326 223.266C187.249 223.712 187.142 224.144 187.005 224.564L184.218 233.04C184.132 233.357 183.948 233.516 183.666 233.516H181.765L177.552 220.466H179.53C179.727 220.466 179.89 220.514 180.018 220.608C180.155 220.702 180.245 220.822 180.288 220.967L182.638 228.982C182.715 229.307 182.784 229.624 182.844 229.932C182.904 230.24 182.959 230.549 183.011 230.857C183.088 230.549 183.169 230.24 183.255 229.932C183.349 229.624 183.443 229.307 183.537 228.982L186.145 220.916C186.187 220.77 186.269 220.655 186.389 220.569C186.508 220.475 186.654 220.428 186.825 220.428H187.917C188.105 220.428 188.259 220.475 188.379 220.569C188.508 220.655 188.593 220.77 188.636 220.916L191.179 228.982C191.273 229.307 191.363 229.628 191.449 229.945C191.535 230.253 191.612 230.566 191.68 230.883C191.732 230.574 191.791 230.266 191.86 229.958C191.928 229.641 192.006 229.316 192.091 228.982L194.48 220.967C194.523 220.822 194.609 220.702 194.737 220.608C194.874 220.514 195.028 220.466 195.199 220.466H197.087ZM217.473 220.466L210.229 237.305C210.152 237.493 210.049 237.638 209.921 237.741C209.792 237.844 209.604 237.895 209.355 237.895H207.493L209.882 232.694L204.526 220.466H206.71C206.924 220.466 207.091 220.518 207.211 220.621C207.33 220.723 207.416 220.839 207.467 220.967L210.781 228.802C210.85 228.999 210.914 229.2 210.974 229.406C211.042 229.603 211.098 229.8 211.141 229.996C211.201 229.791 211.265 229.59 211.333 229.393C211.402 229.187 211.475 228.986 211.552 228.789L214.75 220.967C214.81 220.822 214.904 220.702 215.032 220.608C215.161 220.514 215.306 220.466 215.469 220.466H217.473ZM228.426 225.54C228.426 225.043 228.353 224.585 228.208 224.165C228.071 223.746 227.865 223.382 227.591 223.074C227.317 222.765 226.983 222.526 226.589 222.354C226.195 222.183 225.742 222.098 225.228 222.098C224.175 222.098 223.344 222.402 222.736 223.009C222.137 223.617 221.756 224.461 221.593 225.54H228.426ZM230.494 231.653C230.186 232.013 229.83 232.325 229.428 232.591C229.025 232.848 228.597 233.058 228.143 233.22C227.69 233.383 227.219 233.503 226.731 233.58C226.251 233.657 225.776 233.695 225.305 233.695C224.406 233.695 223.571 233.546 222.8 233.246C222.038 232.938 221.375 232.492 220.81 231.91C220.253 231.319 219.816 230.592 219.5 229.727C219.191 228.853 219.037 227.852 219.037 226.721C219.037 225.814 219.178 224.97 219.461 224.191C219.744 223.403 220.146 222.718 220.668 222.136C221.199 221.554 221.846 221.096 222.608 220.762C223.37 220.428 224.226 220.261 225.176 220.261C225.973 220.261 226.705 220.394 227.373 220.659C228.049 220.916 228.631 221.293 229.119 221.789C229.608 222.286 229.989 222.898 230.263 223.626C230.545 224.354 230.686 225.184 230.686 226.118C230.686 226.503 230.644 226.764 230.558 226.901C230.472 227.03 230.314 227.094 230.083 227.094H221.529C221.555 227.873 221.666 228.554 221.863 229.136C222.06 229.71 222.329 230.189 222.672 230.574C223.023 230.96 223.438 231.247 223.918 231.435C224.397 231.623 224.932 231.718 225.523 231.718C226.08 231.718 226.559 231.653 226.962 231.525C227.373 231.396 227.724 231.259 228.015 231.114C228.315 230.96 228.563 230.818 228.76 230.69C228.965 230.562 229.145 230.497 229.299 230.497C229.505 230.497 229.663 230.574 229.775 230.729L230.494 231.653ZM238.133 233.721C237.08 233.721 236.266 233.426 235.693 232.835C235.128 232.244 234.845 231.401 234.845 230.305V222.496H233.329C233.184 222.496 233.06 222.453 232.957 222.367C232.863 222.273 232.816 222.136 232.816 221.956V220.942L234.935 220.646L235.5 216.755C235.534 216.609 235.598 216.498 235.693 216.421C235.795 216.335 235.924 216.292 236.078 216.292H237.349V220.672H241.048V222.496H237.349V230.138C237.349 230.651 237.474 231.037 237.722 231.294C237.979 231.542 238.304 231.666 238.698 231.666C238.929 231.666 239.126 231.636 239.289 231.576C239.46 231.516 239.606 231.452 239.726 231.384C239.845 231.307 239.948 231.238 240.034 231.178C240.119 231.118 240.196 231.088 240.265 231.088C240.351 231.088 240.415 231.11 240.458 231.152C240.509 231.187 240.56 231.247 240.612 231.332L241.357 232.54C240.946 232.916 240.458 233.207 239.893 233.413C239.327 233.618 238.741 233.721 238.133 233.721Z" fill="#73737A"/>
</svg>
